<svg width="320" height="300" fill="none" xmlns="http://www.w3.org/2000/svg"><mask id="a" maskUnits="userSpaceOnUse" x="0" y="0" width="320" height="300"><path fill="#fff" d="M0 0h320v300H0z"/></mask><g mask="url(#a)"><path d="M112.808 139.649l311.568-22.19 66.837-49.646-87.226-113.087-291.179 184.923z" fill="#50FD5B"/><path d="M350 299.868v-205.5l-96.511 16.239L-44.751 32l-.001 267.868H350z" fill="#EBF0FE"/></g><path d="M268.857 56.62l-6.81-3.931v7.864l6.81-3.932zM256.599 56.62l-6.811-3.931v7.864l6.811-3.932zM244.34 56.62l-6.811-3.931v7.864l6.811-3.932zM232.081 56.62l-6.81-3.931v7.864l6.81-3.932z" fill="#1A55F6"/><path d="M240 32.54l-6.81-3.932v7.864L240 32.54zM227.741 32.54l-6.81-3.932v7.864l6.81-3.932zM215.482 32.54l-6.81-3.932v7.864l6.81-3.932zM203.224 32.54l-6.811-3.932v7.864l6.811-3.932z" fill="#50FD5B"/><path d="M284 80.701l-6.81-3.932v7.864l6.81-3.932zM271.741 80.701l-6.81-3.932v7.864l6.81-3.932zM259.482 80.701l-6.81-3.932v7.864l6.81-3.932zM247.224 80.701l-6.811-3.932v7.864l6.811-3.932z" fill="#fff"/></svg>