<svg width="320" height="300" fill="none" xmlns="http://www.w3.org/2000/svg"><mask id="a" maskUnits="userSpaceOnUse" x="0" y="0" width="320" height="300"><path fill="#fff" d="M0 0h320v300H0z"/></mask><g mask="url(#a)"><path d="M-2 73.836s80.649-46.06 162.882-19.682c82.234 26.378 111.363 33.315 208.062 19.682C465.643 60.203 642 135.888 642 135.888L547.679 313H-2V73.836z" fill="#EBF0FE"/></g><path d="M217.151 41.076a8.076 8.076 0 11-16.15 0 8.076 8.076 0 0116.15 0z" fill="#EBF0FE"/><path d="M216.098 107.962c0 2.23-1.887 4.038-4.214 4.038-2.327 0-4.213-1.808-4.213-4.038 0-2.23 1.886-4.037 4.213-4.037s4.214 1.807 4.214 4.037z" fill="#FD616F"/><path d="M267.36 71.798c0 11.344-9.196 20.54-20.54 20.54s-20.54-9.196-20.54-20.54 9.196-20.54 20.54-20.54 20.54 9.196 20.54 20.54z" fill="#1A55F6"/><g clip-path="url(#clip0)"><path fill-rule="evenodd" clip-rule="evenodd" d="M253.84 66.24a1.404 1.404 0 010 1.986l-8.046 8.047a1.404 1.404 0 01-1.986 0l-3.657-3.658a1.404 1.404 0 111.986-1.986l2.664 2.664 7.053-7.053a1.404 1.404 0 011.986 0z" fill="#fff"/></g><path d="M303.875 63.898c0 6.205-5.03 11.235-11.235 11.235-6.205 0-11.236-5.03-11.236-11.235 0-6.206 5.031-11.236 11.236-11.236 6.205 0 11.235 5.03 11.235 11.236z" fill="#50FD5B"/><defs><clipPath id="clip0"><path fill="#fff" transform="translate(238.218 62.844)" d="M0 0h17.556v17.556H0z"/></clipPath></defs></svg>