<svg width="34" height="34" fill="none" xmlns="http://www.w3.org/2000/svg"><path d="M9.442 12.188V9.442h6.562V2.536a5.406 5.406 0 00-3.44-1.232A5.442 5.442 0 007.21 5.803a4.71 4.71 0 00-5.46 4.642c.001.729.171 1.443.49 2.088A5.66 5.66 0 000 17.066a5.73 5.73 0 002.494 4.711 5.708 5.708 0 004.87 7.062 5.458 5.458 0 005.2 3.857 5.406 5.406 0 003.44-1.232v-6.906H9.442v-2.746H7.803V19.82h1.639v-1.824H7.803v-1.992h1.639V14.18H7.803v-1.992h1.639z" fill="#1A55F6"/><path d="M17.996 15.229h-2.767v3.542h3.542v-3.542h-.775z" fill="#1A55F6"/><path d="M17.996 11.434h-6.562v11.132H22.566V11.434h-4.57zm2.767 9.33h-7.527v-7.527H20.764v7.526z" fill="#1A55F6"/><path d="M34 17.066a5.66 5.66 0 00-2.24-4.533c.319-.645.489-1.36.489-2.088a4.71 4.71 0 00-5.46-4.642 5.442 5.442 0 00-5.352-4.499 5.406 5.406 0 00-3.44 1.232v6.906h6.561v2.746h1.639v1.992h-1.639v1.824h1.639v1.992h-1.639v1.824h1.639v1.992h-1.639v2.746h-6.562v6.906a5.406 5.406 0 003.44 1.232 5.458 5.458 0 005.2-3.856 5.708 5.708 0 004.87-7.063A5.73 5.73 0 0034 17.066z" fill="#1A55F6"/></svg>