<svg xmlns="http://www.w3.org/2000/svg" width="32" height="32"><path fill="#1a55f6" d="M20.625 9.375a2.19 2.19 0 01-2.188-2.188V-.001H7.25a3.442 3.442 0 00-3.438 3.438v25.125a3.441 3.441 0 003.438 3.437h17.5a3.441 3.441 0 003.437-3.437V9.374h-7.562zM8.938 22.5h4.545a.937.937 0 010 1.876H8.938a.938.938 0 010-1.876zM8 18.437c0-.518.42-.937.938-.937h13.75a.938.938 0 110 1.875H8.938A.938.938 0 018 18.437zM22.688 12.5a.938.938 0 010 1.876H8.938a.938.938 0 010-1.876h13.75z"/><path fill="#1a55f6" d="M20.312 7.187c0 .172.14.313.313.313h7.145a3.414 3.414 0 00-.657-.858L21.087.941a3.466 3.466 0 00-.773-.552v6.799z"/></svg>