<svg xmlns="http://www.w3.org/2000/svg" width="32" height="32"><path fill="#1a55f6" d="M31.652 10.092a10.066 10.066 0 00-2.954-7.138A10.066 10.066 0 0021.56 0a10.066 10.066 0 00-7.138 2.954 10.066 10.066 0 00-2.954 7.138c0 1.703.429 3.372 1.244 4.857L.63 27.02a.99.99 0 00-.195 1.106.702.702 0 00.157.226l2.706 2.706a.77.77 0 00.226.157c.402.172.827.088 1.106-.195l1.672-1.672 2.407 2.407a.77.77 0 00.226.157c.402.172.827.088 1.106-.195l2.667-2.667a.77.77 0 00.157-.226c.172-.402.088-.827-.195-1.106l-2.369-2.369 6.399-6.403a10.08 10.08 0 004.857 1.244 10.066 10.066 0 007.137-2.954 10.066 10.066 0 002.958-7.141zm-6.556 3.54c-.945.945-2.205 1.466-3.54 1.466s-2.595-.52-3.54-1.466a4.98 4.98 0 01-1.47-3.54c0-1.339.52-2.595 1.466-3.54s2.205-1.466 3.54-1.466c1.336 0 2.595.521 3.54 1.466s1.466 2.204 1.466 3.54a4.924 4.924 0 01-1.462 3.54z"/></svg>