<svg width="34" height="34" fill="none" xmlns="http://www.w3.org/2000/svg"><g clip-path="url(#clip0)"><path d="M17 0C7.626 0 0 7.626 0 17c0 9.374 7.626 17 17 17 9.374 0 17-7.626 17-17 0-9.374-7.626-17-17-17zm1.106 27.087c-.808.134-2.415.47-3.231.538-.69.057-1.343-.338-1.74-.906a2.125 2.125 0 01-.257-1.945l3.213-8.836H12.75c-.003-1.842 1.378-3.196 3.145-3.715.843-.248 2.413-.587 3.23-.535.49.03 1.343.338 1.74.905.398.568.494 1.294.257 1.946l-3.213 8.836h3.34c0 1.84-1.329 3.41-3.143 3.712zm1.019-16.462a2.125 2.125 0 110-4.25 2.125 2.125 0 010 4.25z" fill="#1A55F6"/></g><defs><clipPath id="clip0"><path fill="#fff" d="M0 0h34v34H0z"/></clipPath></defs></svg>