<svg width="68" height="30" viewBox="0 0 68 30" fill="none" xmlns="http://www.w3.org/2000/svg">
<path fill-rule="evenodd" clip-rule="evenodd" d="M2 2L2 28L66 28L66 2L2 2ZM0 30L68 30L68 8.42323e-07L-1.31134e-06 3.8147e-06L0 30Z" fill="black"/>
<path d="M11.9648 9H13.9648V17H11.9648V9Z" fill="#1E1EF7"/>
<path d="M9 11.8652L10 10.1332L16.9282 14.1332L15.9282 15.8652L9 11.8652Z" fill="#1E1EF7"/>
<path d="M10 15.8652L9 14.1332L15.9282 10.1332L16.9282 11.8652L10 15.8652Z" fill="#1E1EF7"/>
<path d="M25.8926 9H27.8926V17H25.8926V9Z" fill="#1E1EF7"/>
<path d="M22.9277 11.8652L23.9277 10.1332L30.8559 14.1332L29.8559 15.8652L22.9277 11.8652Z" fill="#1E1EF7"/>
<path d="M23.9277 15.8652L22.9277 14.1332L29.8559 10.1332L30.8559 11.8652L23.9277 15.8652Z" fill="#1E1EF7"/>
<path d="M39.8203 9H41.8203V17H39.8203V9Z" fill="#1E1EF7"/>
<path d="M36.8555 11.8652L37.8555 10.1332L44.7837 14.1332L43.7837 15.8652L36.8555 11.8652Z" fill="#1E1EF7"/>
<path d="M37.8555 15.8652L36.8555 14.1332L43.7837 10.1332L44.7837 11.8652L37.8555 15.8652Z" fill="#1E1EF7"/>
<path d="M51 22L51 20L59 20L59 22L51 22Z" fill="black"/>
<path d="M37 22L37 20L45 20L45 22L37 22Z" fill="black"/>
<path d="M23 22L23 20L31 20L31 22L23 22Z" fill="black"/>
<path d="M9 22L9 20L17 20L17 22L9 22Z" fill="black"/>
</svg>