<svg width="26" height="26" viewBox="0 0 26 26" fill="none" xmlns="http://www.w3.org/2000/svg">
<path d="M13.0033 14.6219C15.3319 14.6219 17.2195 12.7342 17.2195 10.4057C17.2195 8.07712 15.3319 6.18945 13.0033 6.18945C10.6748 6.18945 8.78711 8.07712 8.78711 10.4057C8.78711 12.7342 10.6748 14.6219 13.0033 14.6219Z" stroke="white" stroke-width="2" stroke-miterlimit="10"/>
<path d="M18.8417 23.4863C18.8417 20.243 16.2471 17.6484 13.0039 17.6484C9.76061 17.6484 7.16602 20.243 7.16602 23.4863" stroke="white" stroke-width="2" stroke-miterlimit="10"/>
<path d="M13 25C19.6274 25 25 19.6274 25 13C25 6.37258 19.6274 1 13 1C6.37258 1 1 6.37258 1 13C1 19.6274 6.37258 25 13 25Z" stroke="white" stroke-width="2" stroke-miterlimit="10"/>
</svg>
