<svg width="120" height="36" viewBox="0 0 120 36" fill="none" xmlns="http://www.w3.org/2000/svg">
<path d="M15.8789 35.836L31.7533 30.6541V17.4639H15.8789V35.836Z" fill="#365FF6"/>
<path d="M31.7533 0.503906L23.8161 3.63017L15.8789 0.503906V17.4628H31.7533V0.503906Z" fill="#2848BA"/>
<path d="M15.8744 35.835L0 30.6531V17.4629H15.8744V35.835Z" fill="#2848BA"/>
<path d="M15.8744 0.503906L7.93722 3.63017L0 0.503906V17.4628H15.8744V0.503906Z" fill="#365FF6"/>
<path fill-rule="evenodd" clip-rule="evenodd" d="M19.7813 26.2426L15.8799 22.5596L12.0234 26.2426H15.8799H19.7813Z" fill="white"/>
<path fill-rule="evenodd" clip-rule="evenodd" d="M9.19531 9.58301V15.6214C9.19531 19.0903 12.1998 21.9596 15.9218 21.9596C19.6437 21.9596 22.6482 19.1331 22.6482 15.6214V9.58301H9.19531Z" fill="white"/>
<path fill-rule="evenodd" clip-rule="evenodd" d="M23.2812 17.4638H25.1647L27.0929 11.8965H25.2095L23.2812 17.4638Z" fill="white"/>
<path fill-rule="evenodd" clip-rule="evenodd" d="M8.47775 17.4628H6.63919L4.71094 11.8955H6.5495L8.47775 17.4628Z" fill="white"/>
<path d="M49.4594 23.7144V22.4725C48.6074 23.4146 47.1275 23.9714 45.7374 23.9714C42.419 23.9714 39.6836 21.359 39.6836 18.2328C39.6836 15.1065 42.419 12.4941 45.7374 12.4941C47.1275 12.4941 48.6074 13.0937 49.4594 13.993V12.7511H51.7912V23.7144H49.4594ZM42.1948 18.2328C42.1948 20.2027 43.7195 21.7016 45.7822 21.7016C47.8899 21.7016 49.5042 20.2884 49.5042 18.2328C49.5042 16.1771 47.8899 14.7639 45.7822 14.7639C43.7195 14.7639 42.1948 16.2628 42.1948 18.2328Z" fill="white"/>
<path d="M57.0818 8.25488V23.7149H54.75V8.25488H57.0818Z" fill="white"/>
<path d="M62.3318 8.25488V23.7149H60V8.25488H62.3318Z" fill="white"/>
<path d="M76.2765 23.9714C73.0029 23.9714 70.2227 21.3162 70.2227 18.2328C70.2227 15.0637 72.9581 12.4941 76.2765 12.4941C78.5186 12.4941 80.3123 13.5648 81.3437 15.1065L79.55 16.3913C78.7428 15.4063 77.6218 14.8067 76.2765 14.8067C74.3482 14.8067 72.689 16.3913 72.689 18.2756C72.689 20.1171 74.3034 21.7445 76.3213 21.7445C77.7114 21.7445 78.8774 21.1021 79.6845 19.9886L81.5679 21.1021C80.4917 22.8579 78.5186 23.9714 76.2765 23.9714Z" fill="white"/>
<path d="M93.9403 12.751V23.7143H91.6085V22.558C90.7564 23.4574 89.4111 24.0141 88.3349 24.0141C84.9717 24.0141 83.3125 22.0869 83.3125 19.2605V12.751H85.6892V19.0463C85.6892 20.6309 86.8551 21.7443 88.4694 21.7443C90.308 21.7443 91.6085 20.2883 91.6085 18.8322V12.751H93.9403Z" fill="white"/>
<path d="M96.8555 12.7519H99.1873V13.951C100.039 13.0517 101.519 12.4521 102.909 12.4521C106.273 12.4521 109.008 15.1073 109.008 18.1908C109.008 21.3599 106.273 23.9294 102.909 23.9294C101.519 23.9294 100.039 23.3298 99.1873 22.4305V27.5267H96.8555V12.7519ZM99.1873 18.2336C99.1873 20.2892 100.802 21.7025 102.909 21.7025C105.017 21.7025 106.497 20.1607 106.497 18.2336C106.497 16.3064 105.017 14.7647 102.909 14.7647C100.802 14.7647 99.1873 16.178 99.1873 18.2336Z" fill="white"/>
<path d="M118.562 18.1481C119.728 18.9618 119.997 19.9468 119.952 20.8889C119.862 21.8311 119.324 22.7304 118.427 23.2443C117.575 23.7582 116.319 24.0152 115.064 24.0152C113.091 24.0152 111.118 22.9874 110.266 22.1309L111.79 20.375C113.001 21.4457 114.391 21.7454 115.467 21.7454C116.454 21.7454 117.396 21.4028 117.53 20.8033C117.665 20.2037 117.216 19.7755 115.692 19.4329C114.346 19.0902 112.597 18.5335 111.97 18.1053C111.118 17.5057 110.669 16.7777 110.669 15.7927C110.624 14.9362 111.118 14.0797 111.79 13.4801C112.597 12.7949 113.943 12.4951 115.154 12.4951C116.902 12.5379 118.382 13.1375 119.369 13.8655L117.934 15.5786C116.858 14.8077 115.871 14.6792 115.019 14.6792C113.674 14.6364 113.091 15.1075 113.046 15.5786C113.001 16.0925 113.584 16.4351 115.557 16.9918C116.813 17.2916 118.023 17.7198 118.562 18.1481Z" fill="white"/>
</svg>