<svg width="212" height="37" viewBox="0 0 212 37" fill="none" xmlns="http://www.w3.org/2000/svg">
<path d="M105.969 1H70.9688V36H105.969V1Z" fill="black" stroke="white" stroke-width="1.1595" stroke-miterlimit="10"/>
<path d="M100.953 11.0033V5.98633H75.957V11.0033H85.9613V25.9948H75.957V30.9821H100.953V25.9948H90.9486V11.0033H100.953Z" fill="white"/>
<path d="M71 1H36V36H71V1Z" fill="black" stroke="white" stroke-width="1.1595" stroke-miterlimit="10"/>
<path d="M65.984 18.2186C65.984 11.3314 60.3734 5.7207 53.4862 5.7207C46.599 5.7207 40.9883 11.3314 40.9883 18.2186V30.9836H45.9756V25.9964H60.9671V30.9836H65.9544L65.984 18.2186ZM45.9756 20.9794V18.2186C45.9756 14.0922 49.3301 10.708 53.4862 10.708C57.6125 10.708 60.9968 14.0625 60.9968 18.2186V20.9794H45.9756Z" fill="white"/>
<path d="M175.941 1H140.941V36H175.941V1Z" fill="black" stroke="white" stroke-width="1.1595" stroke-miterlimit="10"/>
<path d="M170.924 5.98633H145.928V10.9736H165.907V18.8701C165.907 22.9371 162.552 26.2323 158.396 26.2323C154.27 26.2323 150.886 22.9371 150.886 18.8701V15.9906H145.898V18.8701C145.898 25.6979 151.509 31.2493 158.396 31.2493C165.284 31.2493 170.894 25.6979 170.894 18.8701L170.924 5.98633Z" fill="white"/>
<path d="M140.969 1H105.969V36H140.969V1Z" fill="black" stroke="white" stroke-width="1.1595" stroke-miterlimit="10"/>
<path d="M135.953 11.0033V5.98633H110.957V11.0033H120.961V25.9948H110.957V30.9821H135.953V25.9948H125.949V11.0033H135.953Z" fill="white"/>
<path d="M210.941 1H175.941V36H210.941V1Z" fill="black" stroke="white" stroke-width="1.1595" stroke-miterlimit="10"/>
<path d="M193.425 26.2631C189.15 26.2631 185.677 22.7899 185.677 18.5151C185.677 14.2402 189.15 10.767 193.425 10.767C196.839 10.767 199.719 12.9637 200.787 16.0214H205.953C204.795 10.1732 199.63 5.75 193.425 5.75C186.39 5.75 180.66 11.4794 180.66 18.5151C180.66 25.5507 186.39 31.2801 193.425 31.2801C199.6 31.2801 204.765 26.8569 205.953 21.0087H200.787C199.719 24.0367 196.839 26.2631 193.425 26.2631Z" fill="white"/>
<path d="M36 1H1V36H36V1Z" fill="black" stroke="white" stroke-width="1.1595" stroke-miterlimit="10"/>
<path d="M31.3995 19.9408C30.598 20.0001 29.8262 20.0595 29.0246 20.1189C28.9653 19.5845 28.9059 19.0205 28.8168 18.4861C28.9059 17.9518 28.9653 17.3877 29.0246 16.8534C29.8262 16.9128 30.598 16.9721 31.3995 17.0315H31.4292C31.5777 17.0315 31.6964 16.9128 31.7261 16.7643C31.7261 16.5862 31.6073 16.4675 31.4589 16.4378C30.6574 16.3784 29.8559 16.2894 29.084 16.2597C29.1434 15.28 29.1137 14.3004 29.0246 13.3504C29.5293 13.4692 30.0637 13.6176 30.5683 13.766C30.598 13.766 30.6277 13.766 30.6574 13.766C30.7761 13.766 30.8949 13.677 30.9542 13.5582C31.0136 13.4098 30.8949 13.2317 30.7464 13.202C30.1527 13.0239 29.559 12.8754 28.9653 12.727C28.8465 11.9849 28.6684 11.2427 28.4012 10.5005C28.609 10.6193 28.7872 10.7083 28.995 10.8271C29.1434 10.9162 29.3215 10.8568 29.4106 10.7084C29.4996 10.5599 29.4402 10.3818 29.2918 10.2927C28.9059 10.0553 28.4903 9.84745 28.0747 9.66933C27.8669 9.16467 27.5997 8.66 27.3028 8.18503C27.2138 8.03659 27.0357 8.00691 26.8872 8.09597C26.7388 8.18502 26.7091 8.36314 26.7982 8.51157C26.9466 8.77875 27.095 9.01624 27.2138 9.28341C26.7091 9.04592 26.2045 8.86781 25.6701 8.66C25.3732 7.97722 25.0764 7.32413 24.7498 6.70072C24.6905 6.55229 24.5123 6.49291 24.3936 6.55229C24.2452 6.61166 24.1561 6.76009 24.2155 6.90852C24.3342 7.35381 24.453 7.82879 24.542 8.27408C23.8889 8.06628 23.2062 7.91785 22.5531 7.7991C22.3453 7.11632 22.1374 6.46323 21.9296 5.78045C21.9 5.63201 21.7515 5.54296 21.6031 5.57264C21.4547 5.60233 21.3359 5.72107 21.3656 5.8695C21.3953 6.43354 21.3953 7.02726 21.3953 7.5913C20.6531 7.50224 19.911 7.44287 19.1688 7.41318C19.0501 6.76009 18.961 6.13668 18.872 5.48358C18.8423 5.33515 18.7235 5.24609 18.5751 5.24609C18.4267 5.24609 18.3079 5.36484 18.2782 5.48358C18.1892 6.10699 18.0704 6.76009 17.9814 7.41318C17.2392 7.44287 16.4971 7.50224 15.7549 7.5913C15.7549 7.02726 15.7549 6.43354 15.7846 5.8695C15.7846 5.72107 15.6955 5.60233 15.5471 5.57264C15.3987 5.54296 15.2503 5.63201 15.2206 5.78045C15.0128 6.43354 14.805 7.11632 14.5972 7.7991C13.9144 7.91785 13.2613 8.09597 12.6082 8.27408C12.6972 7.7991 12.816 7.35381 12.9347 6.90852C12.9644 6.76009 12.905 6.61166 12.7566 6.55229C12.6082 6.49291 12.4598 6.55229 12.4004 6.70072C12.1035 7.32413 11.8067 7.97722 11.4801 8.66C10.9754 8.83812 10.4411 9.04592 9.93643 9.28341C10.0552 9.01624 10.2036 8.77875 10.352 8.51157C10.4411 8.36314 10.3817 8.18502 10.263 8.09597C10.1145 8.00691 9.93643 8.06628 9.84737 8.18503C9.55051 8.66 9.31302 9.16467 9.07553 9.66933C8.65993 9.87714 8.274 10.0849 7.8584 10.2927C7.70997 10.3818 7.6506 10.5599 7.73965 10.7084C7.79903 10.7974 7.88808 10.8568 8.00683 10.8568C8.0662 10.8568 8.09589 10.8568 8.15526 10.8271C8.36306 10.7083 8.54118 10.6193 8.74898 10.5005C8.51149 11.213 8.30369 11.9552 8.18495 12.727C7.59122 12.8754 6.9975 13.0239 6.40378 13.202C6.25535 13.2614 6.16629 13.4098 6.19597 13.5582C6.22566 13.7067 6.40378 13.7957 6.55221 13.766C7.05687 13.6176 7.59122 13.4692 8.09589 13.3504C7.97714 14.3004 7.97714 15.28 8.03652 16.2597C7.23499 16.319 6.43346 16.3784 5.66162 16.4378C5.51319 16.4378 5.36476 16.5862 5.39445 16.7643C5.39445 16.9128 5.54288 17.0612 5.72099 17.0315C6.52252 16.9721 7.29436 16.9128 8.09589 16.8534C8.15526 17.3877 8.21463 17.9518 8.30369 18.4861C8.21463 19.0205 8.15526 19.5845 8.09589 20.1189C7.29436 20.0595 6.52252 20.0001 5.72099 19.9408C5.54288 19.9111 5.42413 20.0595 5.39445 20.2079C5.39445 20.386 5.51319 20.5048 5.66162 20.5345C6.46315 20.5938 7.26468 20.6829 8.03652 20.7126C7.97714 21.6922 8.00683 22.6719 8.09589 23.6218C7.59122 23.5031 7.05687 23.3547 6.55221 23.2062C6.40378 23.1469 6.22566 23.2656 6.19597 23.414C6.16629 23.5625 6.25535 23.7406 6.40378 23.7703C6.9975 23.9484 7.59122 24.0968 8.18495 24.2452C8.30369 24.9874 8.48181 25.7296 8.74898 26.4717C8.54118 26.353 8.36306 26.2639 8.15526 26.1452C8.00683 26.0561 7.82871 26.1155 7.73965 26.2639C7.6506 26.4123 7.70997 26.5905 7.8584 26.6795C8.24432 26.917 8.65993 27.1248 9.07553 27.3029C9.28333 27.8076 9.55051 28.3123 9.84737 28.7872C9.93643 28.9357 10.1145 28.9653 10.263 28.8763C10.4114 28.7872 10.4411 28.6091 10.352 28.4607C10.2036 28.1935 10.0552 27.956 9.93643 27.6888C10.4411 27.9263 10.9458 28.1044 11.4801 28.3123C11.777 28.995 12.0738 29.6481 12.4004 30.2715C12.4598 30.42 12.6379 30.4793 12.7566 30.42C12.905 30.3606 12.9941 30.2122 12.9347 30.0637C12.816 29.6184 12.6972 29.1435 12.6082 28.6982C13.2613 28.906 13.9441 29.0544 14.5972 29.1732C14.805 29.8559 15.0128 30.509 15.2206 31.1918C15.2503 31.3402 15.3987 31.4293 15.5471 31.3996C15.6955 31.3699 15.8143 31.2512 15.7846 31.1028C15.7549 30.5387 15.7549 29.945 15.7549 29.381C16.4971 29.47 17.2392 29.5294 17.9814 29.5591C18.1001 30.2122 18.1892 30.8356 18.2782 31.4887C18.3079 31.6371 18.4267 31.7262 18.5751 31.7262C18.7235 31.7262 18.8423 31.6074 18.872 31.4887C18.961 30.8653 19.0798 30.2122 19.1688 29.5591C19.911 29.5294 20.6531 29.47 21.3953 29.381C21.3953 29.945 21.3953 30.5387 21.3656 31.1028C21.3656 31.2512 21.4547 31.3699 21.6031 31.3996C21.6328 31.3996 21.6328 31.3996 21.6625 31.3996C21.7812 31.3996 21.9 31.3106 21.9593 31.1918C22.1671 30.5387 22.3749 29.8559 22.5827 29.1732C23.2655 29.0544 23.9186 28.8763 24.5717 28.6982C24.4827 29.1731 24.3639 29.6184 24.2452 30.0637C24.2155 30.2122 24.2749 30.3606 24.4233 30.42C24.5717 30.4793 24.7201 30.42 24.7795 30.2715C25.0764 29.6481 25.3732 28.995 25.6998 28.3123C26.2045 28.1341 26.7388 27.9263 27.2435 27.6888C27.1247 27.956 26.9763 28.1935 26.8279 28.4607C26.7388 28.6091 26.7982 28.7872 26.9169 28.8763C27.0654 28.9653 27.2435 28.906 27.3325 28.7872C27.6294 28.3123 27.8669 27.8076 28.1044 27.3029C28.52 27.0951 28.9059 26.8873 29.3215 26.6795C29.4699 26.5905 29.5293 26.4123 29.4402 26.2639C29.3512 26.1155 29.1731 26.0561 29.0246 26.1452C28.8168 26.2639 28.6387 26.353 28.4309 26.4717C28.6684 25.7592 28.8762 25.0171 28.995 24.2452C29.5887 24.0968 30.1824 23.9484 30.7761 23.7703C30.9246 23.7109 31.0136 23.5625 30.9839 23.414C30.9542 23.2656 30.7761 23.1765 30.6277 23.2062C30.123 23.3547 29.5887 23.5031 29.084 23.6218C29.2028 22.6719 29.2028 21.6922 29.1434 20.7126C29.9449 20.6532 30.7464 20.5938 31.5183 20.5345C31.6667 20.5345 31.8151 20.386 31.7855 20.2079C31.6964 20.0595 31.5777 19.9408 31.3995 19.9408ZM25.5217 24.9577C25.8482 24.8983 26.1451 24.839 26.4716 24.8093C26.0857 25.8186 25.6998 26.7686 25.2842 27.7185C25.4029 26.7983 25.492 25.878 25.5217 24.9577ZM25.5217 24.364C25.5514 23.2359 25.492 22.0782 25.3732 20.9501C26.1451 20.9204 26.9466 20.861 27.7185 20.8313C27.4216 21.9594 27.095 23.0875 26.6794 24.1562C26.2935 24.2452 25.9076 24.3046 25.5217 24.364ZM21.9296 28.6685C21.9 27.5701 21.8703 26.5014 21.7812 25.403C22.1968 25.3733 22.5827 25.3436 22.9983 25.2843C22.7015 26.4123 22.3749 27.5404 22.0484 28.6388C21.989 28.6685 21.9593 28.6685 21.9296 28.6685ZM21.7515 24.839C21.6625 23.5921 21.514 22.3453 21.3656 21.0985C22.2562 21.0688 23.1468 21.0688 24.0374 21.0095C23.7702 22.2563 23.4733 23.4734 23.1765 24.6905C22.7015 24.7499 22.2265 24.7796 21.7515 24.839ZM18.397 28.9653C18.1892 27.8076 18.0111 26.6498 17.8033 25.5218C18.0408 25.5218 18.2782 25.5218 18.5157 25.5218C18.7532 25.5218 18.9907 25.5218 19.2282 25.5218C19.0204 26.6498 18.8126 27.8076 18.6345 28.9653C18.5157 28.9653 18.4564 28.9653 18.397 28.9653ZM17.6845 24.928C17.447 23.6515 17.2392 22.375 17.0314 21.0985C17.5361 21.0985 18.0111 21.0985 18.5157 21.0985C19.0204 21.0985 19.4954 21.0985 20 21.0985C19.7922 22.375 19.5548 23.6515 19.3469 24.928C18.7532 24.9577 18.2189 24.9577 17.6845 24.928ZM14.9534 28.6685C14.6268 27.5701 14.3003 26.4717 14.0034 25.3139C14.419 25.3436 14.805 25.403 15.2206 25.4327C15.1315 26.5311 15.1018 27.5998 15.0721 28.6982C15.0128 28.6685 14.9831 28.6685 14.9534 28.6685ZM13.8253 24.6905C13.4988 23.4734 13.2019 22.2563 12.9644 21.0095C13.855 21.0391 14.7456 21.0688 15.6362 21.0985C15.4877 22.3453 15.3393 23.5921 15.2503 24.839C14.7753 24.7796 14.3003 24.7499 13.8253 24.6905ZM11.7176 27.7185C11.302 26.7983 10.9161 25.8186 10.5302 24.8093C10.8567 24.8687 11.1536 24.928 11.4801 24.9577C11.5098 25.878 11.5989 26.7983 11.7176 27.7185ZM10.2927 24.1562C9.90674 23.0578 9.55051 21.9594 9.25365 20.8313C10.0255 20.8907 10.827 20.9204 11.5989 20.9501C11.4801 22.0782 11.4504 23.2359 11.4504 24.364C11.0645 24.3046 10.6786 24.2452 10.2927 24.1562ZM8.77867 18.4861C8.86773 17.9221 8.98647 17.3284 9.1349 16.7643C9.9958 16.705 10.827 16.6753 11.6879 16.6159C11.7473 17.2393 11.8363 17.8627 11.9254 18.4861C11.8363 19.1095 11.7473 19.7329 11.6879 20.3564C10.827 20.3267 9.9958 20.2673 9.1349 20.2079C8.98647 19.6439 8.86773 19.0799 8.77867 18.4861ZM11.4801 12.0145C11.1536 12.0739 10.8567 12.1333 10.5302 12.163C10.9161 11.1536 11.302 10.2037 11.7176 9.25373C11.5989 10.174 11.5098 11.0943 11.4801 12.0145ZM11.4801 12.6083C11.4504 13.7363 11.5098 14.8941 11.6285 16.0222C10.8567 16.0519 10.0552 16.1112 9.28333 16.1409C9.5802 15.0128 9.90674 13.8848 10.3224 12.8161C10.6786 12.7567 11.0645 12.6973 11.4801 12.6083ZM15.0721 8.30377C15.1018 9.40216 15.1315 10.4709 15.2206 11.5692C14.805 11.5989 14.419 11.6286 14.0034 11.688C14.3003 10.5599 14.6268 9.43184 14.9534 8.33346C14.9831 8.33346 15.0128 8.30377 15.0721 8.30377ZM15.2503 12.163C15.3393 13.4098 15.4877 14.6566 15.6362 15.9034C14.7456 15.9331 13.855 15.9331 12.9644 15.9925C13.2316 14.7457 13.5285 13.5285 13.8253 12.3114C14.3003 12.252 14.7753 12.1927 15.2503 12.163ZM18.6048 8.00691C18.8126 9.16467 18.9907 10.3224 19.1985 11.4505C18.7235 11.4505 18.2782 11.4505 17.8033 11.4505C18.0111 10.3224 18.2189 9.16467 18.397 8.00691C18.4564 8.00691 18.5157 8.00691 18.6048 8.00691ZM19.2876 12.0442C19.5251 13.3207 19.7329 14.5972 19.9407 15.8737C18.961 15.8737 17.9814 15.8737 17.0017 15.8737C17.2095 14.5972 17.447 13.3207 17.6548 12.0442C18.2189 12.0442 18.7532 12.0442 19.2876 12.0442ZM22.0484 8.33346C22.3749 9.40216 22.6718 10.5302 22.9983 11.688C22.5827 11.6583 22.1968 11.5989 21.7812 11.5692C21.8703 10.4709 21.9 9.40216 21.9296 8.30377C21.9593 8.30377 21.989 8.33346 22.0484 8.33346ZM23.1468 12.2817C23.4733 13.4988 23.7702 14.716 24.0077 15.9628C23.1171 15.9331 22.2265 15.9034 21.3359 15.8737C21.4844 14.6269 21.6328 13.3801 21.7218 12.1333C22.2265 12.1927 22.7015 12.252 23.1468 12.2817ZM25.2842 9.28341C25.6998 10.2037 26.0857 11.1833 26.4716 12.1927C26.1451 12.1333 25.8482 12.0739 25.5217 12.0442C25.492 11.0943 25.4029 10.174 25.2842 9.28341ZM26.7091 12.8458C27.095 13.9441 27.4513 15.0425 27.7481 16.1706C26.9763 16.1112 26.1748 16.0815 25.4029 16.0519C25.5217 14.9238 25.5514 13.766 25.5514 12.638C25.9076 12.6973 26.2935 12.7567 26.7091 12.8458ZM24.7795 16.0222C24.7201 16.0222 24.6905 16.0222 24.6311 16.0222C24.3936 14.805 24.0967 13.5879 23.7702 12.4005C24.1561 12.4598 24.542 12.4895 24.8983 12.5489C24.9576 13.677 24.8983 14.8347 24.7795 16.0222ZM24.1561 20.4157C23.2062 20.4454 22.2265 20.4751 21.2766 20.5048C21.1875 19.8517 21.0984 19.1689 20.9797 18.5158C21.0687 17.8627 21.1875 17.1799 21.2766 16.5268C22.2265 16.5565 23.2062 16.5862 24.1561 16.6159C24.2749 17.2393 24.3936 17.8924 24.4827 18.5158C24.3936 19.1392 24.2749 19.7626 24.1561 20.4157ZM12.5191 18.4861C12.6082 17.833 12.7269 17.2096 12.8457 16.5565C13.7956 16.5268 14.7753 16.4972 15.7252 16.4675C15.8143 17.1206 15.9034 17.8033 16.0221 18.4564C15.933 19.1095 15.8143 19.7923 15.7252 20.4454C14.7753 20.4157 13.7956 20.386 12.8457 20.3564C12.7269 19.7626 12.6082 19.1392 12.5191 18.4861ZM16.319 20.4751C16.319 20.5048 16.319 20.5048 16.319 20.4751C16.319 20.5048 16.319 20.5048 16.319 20.4751C16.319 20.5048 16.319 20.5048 16.319 20.4751ZM16.6158 18.4861C16.7049 17.8033 16.8236 17.1502 16.9424 16.4675C17.9814 16.4675 19.0501 16.4675 20.0891 16.4675C20.2078 17.1502 20.2969 17.8033 20.4157 18.4861C20.3266 19.1689 20.2078 19.822 20.0891 20.5048C19.0501 20.5048 17.9814 20.5048 16.9424 20.5048C16.8236 19.8517 16.7049 19.1689 16.6158 18.4861ZM20.6828 20.4751C20.6828 20.5048 20.6828 20.5048 20.6828 20.4751C20.6828 20.5048 20.6828 20.5048 20.6828 20.4751C20.6828 20.5048 20.6828 20.5048 20.6828 20.4751ZM20.7422 15.9034C20.6828 15.9034 20.6235 15.9034 20.5641 15.9034C20.3563 14.6269 20.1188 13.3504 19.911 12.0739C20.3266 12.0739 20.7422 12.1036 21.1578 12.1333C21.0391 13.3801 20.9203 14.6269 20.7422 15.9034ZM16.408 15.9034C16.3486 15.9034 16.2893 15.9034 16.2299 15.9034C16.0815 14.6566 15.933 13.3801 15.844 12.1333C16.2596 12.1036 16.6752 12.0739 17.0908 12.0739C16.8533 13.3207 16.6455 14.5972 16.408 15.9034ZM12.341 15.9925C12.2816 15.9925 12.252 15.9925 12.1926 15.9925C12.0738 14.8347 12.0441 13.677 12.0441 12.5192C12.4301 12.4598 12.816 12.4005 13.1722 12.3708C12.8754 13.5582 12.6082 14.7754 12.341 15.9925ZM12.1926 20.9798C12.252 20.9798 12.2816 20.9798 12.341 20.9798C12.5785 22.1969 12.8754 23.414 13.2019 24.6015C12.816 24.5421 12.4301 24.5124 12.0738 24.453C12.0441 23.2953 12.1035 22.1375 12.1926 20.9798ZM16.2299 21.0985C16.2893 21.0985 16.3486 21.0985 16.408 21.0985C16.6158 22.375 16.8533 23.6515 17.0611 24.928C16.6455 24.928 16.2299 24.8983 15.8143 24.8687C15.933 23.6218 16.0815 22.3453 16.2299 21.0985ZM20.5641 21.0985C20.6235 21.0985 20.6828 21.0985 20.7422 21.0985C20.8906 22.3453 21.0391 23.6218 21.1281 24.8687C20.7125 24.8983 20.2969 24.928 19.8813 24.928C20.1188 23.6515 20.3563 22.375 20.5641 21.0985ZM24.6311 20.9798C24.6905 20.9798 24.7201 20.9798 24.7795 20.9798C24.8983 22.1375 24.9279 23.2953 24.9279 24.453C24.542 24.5124 24.1858 24.5718 23.7999 24.6015C24.0967 23.414 24.3936 22.1969 24.6311 20.9798ZM25.3139 20.3564C25.2545 19.7329 25.1654 19.1095 25.0764 18.4861C25.1654 17.8627 25.2545 17.2393 25.3139 16.6159C26.1748 16.6456 27.006 16.705 27.8669 16.7643C27.9856 17.3284 28.1044 17.9221 28.2231 18.4861C28.1341 19.0502 28.0153 19.6439 27.8669 20.2079C27.0357 20.2673 26.1748 20.3267 25.3139 20.3564ZM28.4606 16.23C28.4309 16.23 28.3715 16.23 28.3419 16.23C28.0747 15.1316 27.7481 14.0629 27.3622 12.9942C27.6888 13.0536 28.045 13.1426 28.3715 13.2317C28.52 14.1816 28.52 15.191 28.4606 16.23ZM27.57 10.1146C27.8966 10.9162 28.1341 11.7177 28.2825 12.5786C27.8966 12.4895 27.5106 12.4005 27.1544 12.3411C26.7982 11.3614 26.4123 10.3818 25.9967 9.46153C26.5013 9.63965 27.0357 9.84745 27.57 10.1146ZM24.6311 8.95687C24.7795 9.93651 24.8983 10.9162 24.9279 11.9255C24.5123 11.8661 24.0671 11.8067 23.6514 11.7474C23.3546 10.6193 23.028 9.5209 22.7015 8.4522C23.3249 8.60063 23.978 8.74906 24.6311 8.95687ZM21.3359 8.21471C21.3359 9.3131 21.2765 10.4115 21.1875 11.5396C20.7125 11.5099 20.2672 11.4802 19.7922 11.4802C19.5844 10.3521 19.3766 9.19436 19.1985 8.03659C19.911 8.06628 20.6235 8.12565 21.3359 8.21471ZM17.8033 8.03659C17.5955 9.19436 17.4173 10.3521 17.2095 11.4802C16.7346 11.4802 16.2893 11.5099 15.8143 11.5396C15.7252 10.4412 15.6955 9.34279 15.6659 8.21471C16.3783 8.12565 17.0908 8.06628 17.8033 8.03659ZM14.3003 8.4522C13.9738 9.5209 13.6769 10.6193 13.3503 11.7474C12.9347 11.8067 12.4894 11.8661 12.0738 11.9255C12.1035 10.9162 12.1926 9.93651 12.3707 8.95687C12.9941 8.74906 13.6472 8.60063 14.3003 8.4522ZM9.43177 10.1146C9.96612 9.87714 10.5005 9.63965 11.0348 9.43184C10.6192 10.3521 10.2333 11.3318 9.87706 12.3114C9.49114 12.4005 9.10522 12.4598 8.74898 12.5489C8.86773 11.7177 9.10522 10.8865 9.43177 10.1146ZM8.60055 13.202C8.9271 13.1129 9.28333 13.0536 9.60988 12.9645C9.25365 14.0332 8.89741 15.1019 8.63024 16.2003C8.60055 16.2003 8.54118 16.2003 8.51149 16.2003C8.45212 15.191 8.48181 14.1816 8.60055 13.202ZM8.51149 20.772C8.54118 20.772 8.60055 20.772 8.63024 20.772C8.89741 21.8704 9.22396 22.9391 9.60988 24.0078C9.28333 23.9484 8.9271 23.8593 8.60055 23.7703C8.48181 22.8203 8.45212 21.7813 8.51149 20.772ZM9.43177 26.8873C9.10522 26.0858 8.86773 25.2843 8.7193 24.4234C9.10522 24.5124 9.49114 24.6015 9.84737 24.6609C10.2036 25.6405 10.5895 26.6201 11.0051 27.5404C10.4708 27.3623 9.93643 27.1248 9.43177 26.8873ZM12.3707 28.0451C12.2223 27.0654 12.1035 26.0858 12.0738 25.0765C12.4894 25.1358 12.9347 25.1952 13.3503 25.2546C13.6472 26.3826 13.9738 27.481 14.3003 28.5497C13.6472 28.4013 12.9941 28.2232 12.3707 28.0451ZM15.6659 28.7575C15.6659 27.6592 15.7252 26.5608 15.8143 25.4327C16.2893 25.4624 16.7346 25.4921 17.2095 25.4921C17.4173 26.6201 17.6251 27.7779 17.8033 28.9357C17.0908 28.9357 16.3783 28.8763 15.6659 28.7575ZM19.1985 28.9653C19.4063 27.8076 19.5844 26.6498 19.7922 25.5218C20.2672 25.5218 20.7125 25.4921 21.1875 25.4624C21.2765 26.5608 21.3062 27.6592 21.3359 28.7872C20.6235 28.8763 19.911 28.9357 19.1985 28.9653ZM22.7015 28.5201C23.028 27.4513 23.3249 26.353 23.6514 25.2249C24.0671 25.1655 24.5123 25.1061 24.9279 25.0468C24.8983 26.0561 24.8092 27.0357 24.6311 28.0154C23.978 28.2232 23.3249 28.4013 22.7015 28.5201ZM27.57 26.8873C27.0357 27.1248 26.5013 27.3623 25.967 27.5701C26.3826 26.6498 26.7685 25.6702 27.1247 24.6905C27.5106 24.6015 27.8966 24.5421 28.2528 24.453C28.1341 25.2546 27.8966 26.0858 27.57 26.8873ZM28.3715 23.8C28.045 23.889 27.6888 23.9484 27.3622 24.0374C27.7185 22.9687 28.0747 21.9 28.3419 20.8016C28.3715 20.8016 28.4309 20.8016 28.4606 20.8016C28.52 21.7813 28.52 22.8203 28.3715 23.8Z" fill="white"/>
</svg>