<svg width="40" height="40" viewBox="0 0 40 40" fill="none" xmlns="http://www.w3.org/2000/svg">
    <rect width="40" height="40" rx="5" fill="#E6EAF5"/>
    <mask id="mask0" mask-type="alpha" maskUnits="userSpaceOnUse" x="1" y="1" width="38" height="38">
        <rect x="1" y="1" width="38" height="38" rx="5" fill="#E6EAF5"/>
    </mask>
    <g mask="url(#mask0)">
        <path d="M13.8574 35.4804L7.66076 38.8845C7.29713 39.0842 6.66626 39.5972 6.66626 39.5972C6.66626 39.5972 14.9428 39.6667 20.0384 39.6667C25.0963 39.6667 33.3329 39.6667 33.3329 39.6667C33.3329 39.6667 32.6401 39.13 32.2405 38.9295L25.6049 35.5886C24.7476 35.1568 24.2061 34.2744 24.2061 33.3092V30.6873C24.3926 30.4734 24.6057 30.1987 24.8338 29.8743C25.7382 28.5878 26.4223 27.1727 26.8965 25.6881C27.7476 25.4237 28.3745 24.6321 28.3745 23.6913V20.8926C28.3745 20.2769 28.1026 19.7268 27.6802 19.3417V15.2959C27.6802 15.2959 28.5054 9 20.0392 9C11.573 9 12.3982 15.2959 12.3982 15.2959V19.3417C11.975 19.7268 11.7038 20.2769 11.7038 20.8926V23.6913C11.7038 24.4284 12.0886 25.0772 12.6646 25.4521C13.359 28.4963 15.1771 30.6873 15.1771 30.6873V33.2445C15.1764 34.1758 14.6701 35.0337 13.8574 35.4804Z"
              fill="black"/>
    </g>
</svg>
