<svg width="40" height="40" viewBox="0 0 40 40" fill="none" xmlns="http://www.w3.org/2000/svg">
<rect width="40" height="40" rx="5" fill="#E6EAF5"/>
<path d="M27.8244 20.7441H26.123C26.2965 21.2189 26.3912 21.7313 26.3912 22.2654V28.6957C26.3912 28.9184 26.3525 29.1321 26.2819 29.3309H29.0947C30.1454 29.3309 31.0002 28.476 31.0002 27.4254V23.9199C31.0003 22.1688 29.5756 20.7441 27.8244 20.7441Z" fill="black"/>
<path d="M13.6091 22.2654C13.6091 21.7313 13.7038 21.2189 13.8772 20.7441H12.1758C10.4247 20.7441 9 22.1688 9 23.92V27.4254C9 28.4761 9.85478 29.3309 10.9055 29.3309H13.7183C13.6478 29.132 13.6091 28.9184 13.6091 28.6957V22.2654Z" fill="black"/>
<path d="M21.9444 19.0898H18.0547C16.3036 19.0898 14.8789 20.5145 14.8789 22.2657V28.696C14.8789 29.0467 15.1633 29.3311 15.5141 29.3311H24.485C24.8358 29.3311 25.1202 29.0468 25.1202 28.696V22.2657C25.1202 20.5145 23.6955 19.0898 21.9444 19.0898Z" fill="black"/>
<path d="M20 10.6689C17.894 10.6689 16.1807 12.3823 16.1807 14.4883C16.1807 15.9168 16.9691 17.1644 18.1335 17.8194C18.6857 18.1301 19.3225 18.3076 20 18.3076C20.6775 18.3076 21.3142 18.1301 21.8665 17.8194C23.0309 17.1644 23.8193 15.9168 23.8193 14.4883C23.8193 12.3823 22.106 10.6689 20 10.6689Z" fill="black"/>
<path d="M13.2919 14.2285C11.7169 14.2285 10.4355 15.5098 10.4355 17.0849C10.4355 18.6599 11.7169 19.9412 13.2919 19.9412C13.6914 19.9412 14.0719 19.8585 14.4175 19.7097C15.015 19.4525 15.5077 18.9971 15.8125 18.4267C16.0265 18.0263 16.1482 17.5696 16.1482 17.0849C16.1482 15.5099 14.8669 14.2285 13.2919 14.2285Z" fill="black"/>
<path d="M26.7079 14.2285C25.1329 14.2285 23.8516 15.5098 23.8516 17.0849C23.8516 17.5696 23.9733 18.0264 24.1873 18.4267C24.4921 18.9971 24.9848 19.4525 25.5823 19.7097C25.9279 19.8585 26.3084 19.9412 26.7079 19.9412C28.2829 19.9412 29.5643 18.6599 29.5643 17.0849C29.5643 15.5098 28.2829 14.2285 26.7079 14.2285Z" fill="black"/>
</svg>
