<svg width="110" height="110" viewBox="0 0 110 110" fill="none" xmlns="http://www.w3.org/2000/svg">
<path d="M94.1212 58.7212H85.6143C86.4814 61.0952 86.9551 63.6572 86.9551 66.3275V98.479C86.9551 99.5923 86.7613 100.661 86.4088 101.655H100.473C105.726 101.655 110 97.3807 110 92.1273V74.6001C110 65.8446 102.877 58.7212 94.1212 58.7212Z" fill="black"/>
<path d="M23.0453 66.328C23.0453 63.6575 23.519 61.0957 24.3861 58.7217H15.8791C7.12337 58.7217 0 65.845 0 74.6008V92.128C0 97.3814 4.2739 101.655 9.52748 101.655H23.5916C23.239 100.661 23.0453 99.5928 23.0453 98.4794V66.328Z" fill="black"/>
<path d="M64.7242 50.4485H45.2761C36.5203 50.4485 29.397 57.5719 29.397 66.3276V98.479C29.397 100.233 30.8188 101.655 32.5728 101.655H77.4275C79.1815 101.655 80.6034 100.233 80.6034 98.479V66.3276C80.6034 57.5719 73.48 50.4485 64.7242 50.4485Z" fill="black"/>
<path d="M55 8.34448C44.47 8.34448 35.9033 16.9112 35.9033 27.4413C35.9033 34.5838 39.8455 40.8218 45.6673 44.0969C48.4287 45.6502 51.6123 46.538 55 46.538C58.3876 46.538 61.5712 45.6502 64.3326 44.0969C70.1546 40.8218 74.0966 34.5836 74.0966 27.4413C74.0966 16.9114 65.5299 8.34448 55 8.34448Z" fill="black"/>
<path d="M21.4668 26.144C13.5917 26.144 7.18506 32.5507 7.18506 40.4258C7.18506 48.3009 13.5917 54.7076 21.4668 54.7076C23.4644 54.7076 25.3667 54.2938 27.0947 53.55C30.0823 52.2637 32.5457 49.9868 34.07 47.1348C35.1399 45.133 35.7486 42.8495 35.7486 40.4258C35.7486 32.5509 29.3419 26.144 21.4668 26.144Z" fill="black"/>
<path d="M88.5332 26.144C80.6581 26.144 74.2515 32.5507 74.2515 40.4258C74.2515 42.8497 74.8601 45.1333 75.93 47.1348C77.4544 49.987 79.9178 52.2639 82.9054 53.55C84.6334 54.2938 86.5356 54.7076 88.5332 54.7076C96.4083 54.7076 102.815 48.3009 102.815 40.4258C102.815 32.5507 96.4083 26.144 88.5332 26.144Z" fill="black"/>
</svg>
