<svg width="1440" height="656" viewBox="0 0 1440 656" fill="none" xmlns="http://www.w3.org/2000/svg">
<g opacity="0.4">
<mask id="mask0" mask-type="alpha" maskUnits="userSpaceOnUse" x="-243" y="-153" width="1926" height="961">
<rect x="-242.336" y="-153" width="1924.67" height="961" fill="#C4C4C4"/>
</mask>
<g mask="url(#mask0)">
<path d="M-639.301 837.124C-410.294 673.282 -183.243 503.372 41.2519 325.497C-138.434 488.201 -315.414 658.112 -488.484 836.935C-282.785 673.851 -79.3409 503.941 120.945 325.497C-35.5847 487.822 -188.957 657.543 -337.518 836.935C-155.125 674.23 24.5613 504.32 200.639 325.497C66.9643 487.632 -62.8008 657.353 -186.702 836.935C-27.3146 674.42 128.764 504.699 280.332 325.497C169.213 487.443 63.2052 657.163 -35.7351 836.935C100.646 674.799 233.268 505.079 360.026 325.497C271.31 487.822 188.91 657.732 115.081 836.935C228.908 674.989 337.772 505.268 439.719 325.497C373.258 488.96 314.465 659.06 266.048 836.935C357.319 674.799 442.727 504.889 519.413 325.497C475.055 491.046 440.321 661.525 416.864 836.935C486.032 673.661 547.531 503.562 599.106 325.497C577.454 494.27 566.778 664.938 567.83 836.935C614.744 671.765 652.486 501.286 678.95 325.497C680.905 498.062 694.438 668.731 718.797 836.935" stroke="url(#paint0_linear)" stroke-width="0.75" stroke-miterlimit="10" stroke-linecap="round" stroke-linejoin="round"/>
<path d="M1.4118 325.497C-189.853 488.581 -378.561 658.301 -563.961 836.935C-346.683 673.472 -131.361 503.562 81.1053 325.497C-87.0029 488.012 -252.104 657.922 -412.994 837.124C-219.023 674.041 -27.3079 504.13 160.799 325.687C15.6965 487.822 -125.797 657.543 -262.178 837.124C-91.3635 674.42 76.5943 504.699 240.492 325.687C118.095 487.632 0.208888 657.353 -111.212 837.124C36.5972 674.799 180.948 505.079 320.186 325.687C220.343 487.822 126.064 657.543 39.6045 837.124C164.708 675.178 285.451 505.458 399.879 325.687C322.291 488.391 251.619 658.491 190.571 837.124C293.12 674.989 390.256 505.268 479.573 325.687C424.088 490.098 377.324 660.387 341.387 837.124C421.682 674.42 495.06 504.51 559.266 325.687C526.186 492.753 503.481 663.232 492.354 837.124C550.395 673.092 600.166 502.803 638.96 325.687C629.036 496.356 630.389 667.024 643.17 837.124C678.957 670.438 704.519 499.959 718.653 325.687" stroke="url(#paint1_linear)" stroke-width="0.75" stroke-miterlimit="10" stroke-linecap="round" stroke-linejoin="round"/>
<path d="M-34.2268 353.941C216.733 353.941 467.692 353.941 718.651 353.941" stroke="url(#paint2_linear)" stroke-width="0.75" stroke-miterlimit="10" stroke-linecap="round" stroke-linejoin="round"/>
<path d="M1.4104 325.497C240.491 325.497 479.571 325.497 718.802 325.497" stroke="url(#paint3_linear)" stroke-width="0.75" stroke-miterlimit="10" stroke-linecap="round" stroke-linejoin="round"/>
<path d="M-69.7107 382.387C193.127 382.387 455.966 382.387 718.804 382.387" stroke="url(#paint4_linear)" stroke-width="0.75" stroke-miterlimit="10" stroke-linecap="round" stroke-linejoin="round"/>
<path d="M-105.347 410.83C169.37 410.83 444.087 410.83 718.804 410.83" stroke="url(#paint5_linear)" stroke-width="0.75" stroke-miterlimit="10" stroke-linecap="round" stroke-linejoin="round"/>
<path d="M-140.984 439.277C145.612 439.277 432.208 439.277 718.653 439.277" stroke="url(#paint6_linear)" stroke-width="0.75" stroke-miterlimit="10" stroke-linecap="round" stroke-linejoin="round"/>
<path d="M-176.636 467.533C121.838 467.533 420.163 467.533 718.637 467.533" stroke="url(#paint7_linear)" stroke-width="0.75" stroke-miterlimit="10" stroke-linecap="round" stroke-linejoin="round"/>
<path d="M-212.105 495.978C98.2483 495.978 408.452 495.978 718.805 495.978" stroke="url(#paint8_linear)" stroke-width="0.75" stroke-miterlimit="10" stroke-linecap="round" stroke-linejoin="round"/>
<path d="M-247.745 524.423C74.487 524.423 396.569 524.423 718.801 524.423" stroke="url(#paint9_linear)" stroke-width="0.75" stroke-miterlimit="10" stroke-linecap="round" stroke-linejoin="round"/>
<path d="M-283.394 552.867C50.5666 552.867 384.678 552.867 718.639 552.867" stroke="url(#paint10_linear)" stroke-width="0.75" stroke-miterlimit="10" stroke-linecap="round" stroke-linejoin="round"/>
<path d="M-319.022 581.312C26.8172 581.312 372.807 581.312 718.647 581.312" stroke="url(#paint11_linear)" stroke-width="0.75" stroke-miterlimit="10" stroke-linecap="round" stroke-linejoin="round"/>
<path d="M-354.505 609.756C3.214 609.756 361.083 609.756 718.801 609.756" stroke="url(#paint12_linear)" stroke-width="0.75" stroke-miterlimit="10" stroke-linecap="round" stroke-linejoin="round"/>
<path d="M-390.152 638.199C-20.5547 638.199 349.043 638.199 718.79 638.199" stroke="url(#paint13_linear)" stroke-width="0.75" stroke-miterlimit="10" stroke-linecap="round" stroke-linejoin="round"/>
<path d="M718.798 837.121C743.157 668.727 756.69 498.059 758.645 325.683C785.109 501.472 822.7 671.951 869.764 837.121C870.667 665.124 859.991 494.456 838.489 325.683C890.064 503.937 951.563 673.847 1020.73 837.121C997.274 661.521 962.54 491.232 918.182 325.683C995.018 505.075 1080.28 674.985 1171.7 837.121C1123.28 659.246 1064.49 488.956 998.026 325.683C1099.97 505.454 1208.84 675.175 1322.66 837.121C1248.83 657.729 1166.43 488.008 1077.72 325.683C1204.63 505.454 1337.1 675.175 1473.48 837.121C1374.54 657.349 1268.38 487.629 1157.41 325.683C1308.98 505.075 1465.06 674.796 1624.45 837.121C1500.55 657.349 1370.78 487.629 1237.11 325.683C1413.18 504.506 1592.87 674.416 1775.26 837.121C1626.7 657.729 1473.33 488.008 1316.8 325.683C1517.09 504.127 1720.53 673.847 1926.23 837.121C1753.16 658.108 1576.18 488.387 1396.49 325.683C1620.99 503.558 1848.04 673.468 2077.05 837.121" stroke="url(#paint14_linear)" stroke-width="0.75" stroke-miterlimit="10" stroke-linecap="round" stroke-linejoin="round"/>
<path d="M718.798 325.497C732.782 499.769 758.494 670.248 794.281 836.935C807.062 666.645 808.566 495.976 798.491 325.497C837.436 502.613 887.056 672.903 945.097 836.935C933.97 663.042 911.265 492.563 878.185 325.497C942.391 504.32 1015.77 674.42 1096.06 836.935C1060.13 660.008 1013.36 489.718 957.878 325.497C1047.35 505.268 1144.33 674.989 1246.88 836.935C1185.68 658.112 1115.16 488.201 1037.57 325.497C1152 505.268 1272.74 674.989 1397.85 836.935C1311.39 657.353 1217.11 487.443 1117.27 325.497C1256.5 505.079 1400.85 674.799 1548.66 836.935C1437.24 657.163 1319.36 487.443 1196.96 325.497C1360.71 504.699 1528.66 674.42 1699.63 836.935C1563.4 657.353 1421.91 487.632 1276.65 325.497C1464.91 504.13 1656.47 674.041 1850.45 836.935C1689.55 657.732 1524.45 488.012 1356.35 325.497C1568.81 503.562 1783.98 673.472 2001.41 836.935C1816.16 658.301 1627.3 488.391 1436.04 325.497" stroke="url(#paint15_linear)" stroke-width="0.75" stroke-miterlimit="10" stroke-linecap="round" stroke-linejoin="round"/>
<path d="M718.798 353.941C969.757 353.941 1220.72 353.941 1471.68 353.941" stroke="url(#paint16_linear)" stroke-width="0.75" stroke-miterlimit="10" stroke-linecap="round" stroke-linejoin="round"/>
<path d="M718.798 325.497C957.878 325.497 1196.96 325.497 1436.19 325.497" stroke="url(#paint17_linear)" stroke-width="0.75" stroke-miterlimit="10" stroke-linecap="round" stroke-linejoin="round"/>
<path d="M718.798 382.387C981.636 382.387 1244.47 382.387 1507.31 382.387" stroke="url(#paint18_linear)" stroke-width="0.75" stroke-miterlimit="10" stroke-linecap="round" stroke-linejoin="round"/>
<path d="M718.798 410.83C993.515 410.83 1268.23 410.83 1542.95 410.83" stroke="url(#paint19_linear)" stroke-width="0.75" stroke-miterlimit="10" stroke-linecap="round" stroke-linejoin="round"/>
<path d="M718.798 439.278C1005.39 439.278 1291.99 439.278 1578.44 439.278" stroke="url(#paint20_linear)" stroke-width="0.75" stroke-miterlimit="10" stroke-linecap="round" stroke-linejoin="round"/>
<path d="M718.798 467.534C1017.27 467.534 1315.6 467.534 1614.07 467.534" stroke="url(#paint21_linear)" stroke-width="0.75" stroke-miterlimit="10" stroke-linecap="round" stroke-linejoin="round"/>
<path d="M718.798 495.977C1029.15 495.977 1339.35 495.977 1649.71 495.977" stroke="url(#paint22_linear)" stroke-width="0.75" stroke-miterlimit="10" stroke-linecap="round" stroke-linejoin="round"/>
<path d="M718.798 524.423C1041.03 524.423 1363.11 524.423 1685.34 524.423" stroke="url(#paint23_linear)" stroke-width="0.75" stroke-miterlimit="10" stroke-linecap="round" stroke-linejoin="round"/>
<path d="M718.798 552.867C1052.76 552.867 1386.87 552.867 1720.83 552.867" stroke="url(#paint24_linear)" stroke-width="0.75" stroke-miterlimit="10" stroke-linecap="round" stroke-linejoin="round"/>
<path d="M718.798 581.312C1064.64 581.312 1410.63 581.312 1756.47 581.312" stroke="url(#paint25_linear)" stroke-width="0.75" stroke-miterlimit="10" stroke-linecap="round" stroke-linejoin="round"/>
<path d="M718.798 609.756C1076.52 609.756 1434.39 609.756 1792.1 609.756" stroke="url(#paint26_linear)" stroke-width="0.75" stroke-miterlimit="10" stroke-linecap="round" stroke-linejoin="round"/>
<path d="M718.798 638.2C1088.4 638.2 1457.99 638.2 1827.74 638.2" stroke="url(#paint27_linear)" stroke-width="0.75" stroke-miterlimit="10" stroke-linecap="round" stroke-linejoin="round"/>
<path d="M2076.74 -184.152C1847.74 -21.0717 1620.69 148.244 1396.19 325.497C1575.88 163.362 1752.86 -5.95418 1925.93 -184.152C1720.23 -21.4496 1516.78 147.866 1316.5 325.497C1473.03 163.74 1626.4 -5.38728 1774.96 -184.152C1592.57 -21.8276 1412.73 147.3 1236.8 325.497C1370.48 163.929 1500.24 -5.19832 1624.15 -184.152C1464.76 -22.2055 1308.68 146.922 1157.11 325.497C1268.23 164.118 1374.24 -5.00933 1473.18 -184.152C1336.8 -22.5834 1204.18 146.544 1077.42 325.497C1166.13 163.74 1248.53 -5.57625 1322.36 -184.152C1208.54 -22.7724 1099.67 146.355 997.724 325.497C1064.19 162.606 1122.98 -6.89902 1171.4 -184.152C1080.12 -22.3945 994.717 146.733 917.88 325.497C962.238 160.527 996.972 -9.35562 1020.43 -184.152C951.261 -21.4496 889.762 148.055 838.187 325.497C859.839 157.315 870.515 -12.7571 869.463 -184.152C822.549 -19.5599 784.807 150.323 758.343 325.497C756.388 153.536 742.855 -16.5364 718.496 -184.152" stroke="url(#paint28_linear)" stroke-width="0.75" stroke-miterlimit="10" stroke-linecap="round" stroke-linejoin="round"/>
<path d="M1436.03 325.497C1627.29 162.984 1816 -6.14311 2001.4 -184.152C1784.13 -21.2606 1568.8 148.055 1356.34 325.497C1524.45 163.551 1689.55 -5.76517 1850.44 -184.152C1656.47 -21.6386 1464.75 147.678 1276.64 325.497C1421.75 163.929 1563.24 -5.19827 1699.62 -184.152C1528.81 -22.0165 1360.85 147.111 1196.95 325.497C1319.35 164.118 1437.23 -5.00929 1548.65 -184.152C1400.85 -22.3944 1256.49 146.733 1117.26 325.497C1217.1 163.929 1311.38 -5.19827 1397.84 -184.152C1272.73 -22.7724 1151.99 146.355 1037.56 325.497C1115.15 163.362 1185.82 -6.14311 1246.87 -184.152C1144.32 -22.5834 1047.19 146.544 957.869 325.497C1013.35 161.661 1060.12 -8.0328 1096.05 -184.152C1015.76 -22.0165 942.382 147.3 878.176 325.497C911.256 159.016 933.961 -10.8673 945.088 -184.152C887.047 -20.6937 837.277 149 798.482 325.497C808.407 155.425 807.053 -14.6467 794.272 -184.152C758.485 -18.0481 732.923 151.835 718.789 325.497" stroke="url(#paint29_linear)" stroke-width="0.75" stroke-miterlimit="10" stroke-linecap="round" stroke-linejoin="round"/>
<path d="M1471.67 297.154C1220.71 297.154 969.748 297.154 718.789 297.154" stroke="url(#paint30_linear)" stroke-width="0.75" stroke-miterlimit="10" stroke-linecap="round" stroke-linejoin="round"/>
<path d="M1436.03 325.497C1196.95 325.497 957.872 325.497 718.641 325.497" stroke="url(#paint31_linear)" stroke-width="0.75" stroke-miterlimit="10" stroke-linecap="round" stroke-linejoin="round"/>
<path d="M1507.3 268.995C1244.47 268.995 981.627 268.995 718.789 268.995" stroke="url(#paint32_linear)" stroke-width="0.75" stroke-miterlimit="10" stroke-linecap="round" stroke-linejoin="round"/>
<path d="M1542.79 240.649C1268.07 240.649 993.358 240.649 718.641 240.649" stroke="url(#paint33_linear)" stroke-width="0.75" stroke-miterlimit="10" stroke-linecap="round" stroke-linejoin="round"/>
<path d="M1578.43 212.306C1291.83 212.306 1005.23 212.306 718.789 212.306" stroke="url(#paint34_linear)" stroke-width="0.75" stroke-miterlimit="10" stroke-linecap="round" stroke-linejoin="round"/>
<path d="M1614.06 183.961C1315.59 183.961 1017.26 183.961 718.789 183.961" stroke="url(#paint35_linear)" stroke-width="0.75" stroke-miterlimit="10" stroke-linecap="round" stroke-linejoin="round"/>
<path d="M1649.55 155.613C1339.2 155.613 1028.99 155.613 718.641 155.613" stroke="url(#paint36_linear)" stroke-width="0.75" stroke-miterlimit="10" stroke-linecap="round" stroke-linejoin="round"/>
<path d="M1685.19 127.27C1362.96 127.27 1040.87 127.27 718.641 127.27" stroke="url(#paint37_linear)" stroke-width="0.75" stroke-miterlimit="10" stroke-linecap="round" stroke-linejoin="round"/>
<path d="M1720.82 98.9236C1386.86 98.9236 1052.75 98.9236 718.789 98.9236" stroke="url(#paint38_linear)" stroke-width="0.75" stroke-miterlimit="10" stroke-linecap="round" stroke-linejoin="round"/>
<path d="M1756.46 70.58C1410.62 70.58 1064.63 70.58 718.789 70.58" stroke="url(#paint39_linear)" stroke-width="0.75" stroke-miterlimit="10" stroke-linecap="round" stroke-linejoin="round"/>
<path d="M1791.95 42.4229C1434.23 42.4229 1076.36 42.4229 718.641 42.4229" stroke="url(#paint40_linear)" stroke-width="0.75" stroke-miterlimit="10" stroke-linecap="round" stroke-linejoin="round"/>
<path d="M1827.58 14.0767C1457.99 14.0767 1088.39 14.0767 718.641 14.0767" stroke="url(#paint41_linear)" stroke-width="0.75" stroke-miterlimit="10" stroke-linecap="round" stroke-linejoin="round"/>
<path d="M718.797 -184.152C694.437 -16.3475 680.905 153.724 678.95 325.497C652.486 150.323 614.894 -19.56 567.83 -184.152C566.928 -12.7571 577.604 157.315 599.106 325.497C547.531 147.866 486.032 -21.4497 416.864 -184.152C440.321 -9.1667 475.055 160.527 519.413 325.497C442.726 146.733 357.319 -22.5835 266.047 -184.152C314.465 -6.89907 373.258 162.795 439.719 325.497C337.772 146.355 228.907 -22.7725 115.081 -184.152C188.91 -5.57629 271.31 163.74 360.026 325.497C233.117 146.544 100.646 -22.5835 -35.7353 -184.152C63.2049 -5.00938 169.212 164.118 280.332 325.497C128.764 146.733 -27.3149 -22.3945 -186.702 -184.152C-62.801 -5.00938 66.964 163.929 200.639 325.497C24.5611 147.3 -155.125 -22.0166 -337.518 -184.152C-188.957 -5.38733 -35.5849 163.74 120.945 325.497C-79.3412 147.866 -282.785 -21.4497 -488.485 -184.152C-315.414 -5.95422 -138.435 163.362 41.2516 325.497C-183.243 148.244 -410.295 -21.0717 -639.301 -184.152" stroke="url(#paint42_linear)" stroke-width="0.75" stroke-miterlimit="10" stroke-linecap="round" stroke-linejoin="round"/>
<path d="M718.803 325.497C704.819 151.835 679.107 -18.0482 643.32 -184.152C630.539 -14.4578 629.035 155.614 639.11 325.497C600.165 149 550.395 -20.6938 492.354 -184.152C503.481 -10.8674 526.186 159.016 559.266 325.497C495.211 147.3 421.682 -22.0165 341.537 -184.152C377.475 -7.84387 424.238 161.85 479.723 325.497C390.256 146.355 293.27 -22.7724 190.721 -184.152C251.92 -5.95418 322.441 163.362 400.029 325.497C285.451 146.355 164.708 -22.7724 39.6043 -184.152C126.064 -5.19832 220.343 164.118 320.186 325.497C180.947 146.544 36.597 -22.5834 -111.212 -184.152C0.208644 -5.00933 118.095 164.118 240.492 325.497C76.7445 147.111 -91.2133 -22.2055 -262.178 -184.152C-125.797 -5.19832 15.6962 163.929 160.799 325.497C-27.3082 147.489 -219.024 -21.6386 -412.995 -184.152C-252.104 -5.57625 -87.0031 163.551 81.1051 325.497C-131.361 148.055 -346.533 -21.2607 -563.961 -184.152C-378.711 -6.14316 -189.853 163.173 1.41156 325.497" stroke="url(#paint43_linear)" stroke-width="0.75" stroke-miterlimit="10" stroke-linecap="round" stroke-linejoin="round"/>
<path d="M718.796 297.153C467.837 297.153 216.877 297.153 -34.082 297.153" stroke="url(#paint44_linear)" stroke-width="0.75" stroke-miterlimit="10" stroke-linecap="round" stroke-linejoin="round"/>
<path d="M718.802 325.497C479.722 325.497 240.641 325.497 1.41016 325.497" stroke="url(#paint45_linear)" stroke-width="0.75" stroke-miterlimit="10" stroke-linecap="round" stroke-linejoin="round"/>
<path d="M718.804 268.995C455.965 268.995 193.127 268.995 -69.7109 268.995" stroke="url(#paint46_linear)" stroke-width="0.75" stroke-miterlimit="10" stroke-linecap="round" stroke-linejoin="round"/>
<path d="M718.803 240.649C444.086 240.649 169.369 240.649 -105.348 240.649" stroke="url(#paint47_linear)" stroke-width="0.75" stroke-miterlimit="10" stroke-linecap="round" stroke-linejoin="round"/>
<path d="M718.797 212.306C432.201 212.306 145.605 212.306 -140.84 212.306" stroke="url(#paint48_linear)" stroke-width="0.75" stroke-miterlimit="10" stroke-linecap="round" stroke-linejoin="round"/>
<path d="M718.805 183.961C420.331 183.961 122.006 183.961 -176.468 183.961" stroke="url(#paint49_linear)" stroke-width="0.75" stroke-miterlimit="10" stroke-linecap="round" stroke-linejoin="round"/>
<path d="M718.805 155.613C408.451 155.613 98.2481 155.613 -212.105 155.613" stroke="url(#paint50_linear)" stroke-width="0.75" stroke-miterlimit="10" stroke-linecap="round" stroke-linejoin="round"/>
<path d="M718.801 127.27C396.569 127.27 74.4868 127.27 -247.746 127.27" stroke="url(#paint51_linear)" stroke-width="0.75" stroke-miterlimit="10" stroke-linecap="round" stroke-linejoin="round"/>
<path d="M718.805 98.9235C384.844 98.9235 50.7333 98.9235 -283.228 98.9235" stroke="url(#paint52_linear)" stroke-width="0.75" stroke-miterlimit="10" stroke-linecap="round" stroke-linejoin="round"/>
<path d="M718.802 70.5801C372.963 70.5801 26.9725 70.5801 -318.867 70.5801" stroke="url(#paint53_linear)" stroke-width="0.75" stroke-miterlimit="10" stroke-linecap="round" stroke-linejoin="round"/>
<path d="M718.801 42.4231C361.083 42.4231 3.21375 42.4231 -354.505 42.4231" stroke="url(#paint54_linear)" stroke-width="0.75" stroke-miterlimit="10" stroke-linecap="round" stroke-linejoin="round"/>
<path d="M718.79 14.0767C349.193 14.0767 -20.4046 14.0767 -390.152 14.0767" stroke="url(#paint55_linear)" stroke-width="0.75" stroke-miterlimit="10" stroke-linecap="round" stroke-linejoin="round"/>
</g>
</g>
<defs>
<linearGradient id="paint0_linear" x1="-639.902" y1="581.28" x2="719.293" y2="581.28" gradientUnits="userSpaceOnUse">
<stop stop-color="#0000FF"/>
<stop offset="0.4434" stop-color="#FF0000"/>
<stop offset="0.6321" stop-color="#7449FF"/>
<stop offset="0.766" stop-color="#F049FF"/>
<stop offset="1" stop-color="#0000FF"/>
</linearGradient>
<linearGradient id="paint1_linear" x1="-564.454" y1="581.28" x2="719.3" y2="581.28" gradientUnits="userSpaceOnUse">
<stop stop-color="#0000FF"/>
<stop offset="0.4434" stop-color="#FF0000"/>
<stop offset="0.6321" stop-color="#7449FF"/>
<stop offset="0.766" stop-color="#F049FF"/>
<stop offset="1" stop-color="#0000FF"/>
</linearGradient>
<linearGradient id="paint2_linear" x1="-nan" y1="-nan" x2="-nan" y2="-nan" gradientUnits="userSpaceOnUse">
<stop stop-color="#0000FF"/>
<stop offset="0.4434" stop-color="#FF0000"/>
<stop offset="0.6321" stop-color="#7449FF"/>
<stop offset="0.766" stop-color="#F049FF"/>
<stop offset="1" stop-color="#0000FF"/>
</linearGradient>
<linearGradient id="paint3_linear" x1="-nan" y1="-nan" x2="-nan" y2="-nan" gradientUnits="userSpaceOnUse">
<stop stop-color="#0000FF"/>
<stop offset="0.4434" stop-color="#FF0000"/>
<stop offset="0.6321" stop-color="#7449FF"/>
<stop offset="0.766" stop-color="#F049FF"/>
<stop offset="1" stop-color="#0000FF"/>
</linearGradient>
<linearGradient id="paint4_linear" x1="-nan" y1="-nan" x2="-nan" y2="-nan" gradientUnits="userSpaceOnUse">
<stop stop-color="#0000FF"/>
<stop offset="0.4434" stop-color="#FF0000"/>
<stop offset="0.6321" stop-color="#7449FF"/>
<stop offset="0.766" stop-color="#F049FF"/>
<stop offset="1" stop-color="#0000FF"/>
</linearGradient>
<linearGradient id="paint5_linear" x1="-nan" y1="-nan" x2="-nan" y2="-nan" gradientUnits="userSpaceOnUse">
<stop stop-color="#0000FF"/>
<stop offset="0.4434" stop-color="#FF0000"/>
<stop offset="0.6321" stop-color="#7449FF"/>
<stop offset="0.766" stop-color="#F049FF"/>
<stop offset="1" stop-color="#0000FF"/>
</linearGradient>
<linearGradient id="paint6_linear" x1="-nan" y1="-nan" x2="-nan" y2="-nan" gradientUnits="userSpaceOnUse">
<stop stop-color="#0000FF"/>
<stop offset="0.4434" stop-color="#FF0000"/>
<stop offset="0.6321" stop-color="#7449FF"/>
<stop offset="0.766" stop-color="#F049FF"/>
<stop offset="1" stop-color="#0000FF"/>
</linearGradient>
<linearGradient id="paint7_linear" x1="-nan" y1="-nan" x2="-nan" y2="-nan" gradientUnits="userSpaceOnUse">
<stop stop-color="#0000FF"/>
<stop offset="0.4434" stop-color="#FF0000"/>
<stop offset="0.6321" stop-color="#7449FF"/>
<stop offset="0.766" stop-color="#F049FF"/>
<stop offset="1" stop-color="#0000FF"/>
</linearGradient>
<linearGradient id="paint8_linear" x1="-nan" y1="-nan" x2="-nan" y2="-nan" gradientUnits="userSpaceOnUse">
<stop stop-color="#0000FF"/>
<stop offset="0.4434" stop-color="#FF0000"/>
<stop offset="0.6321" stop-color="#7449FF"/>
<stop offset="0.766" stop-color="#F049FF"/>
<stop offset="1" stop-color="#0000FF"/>
</linearGradient>
<linearGradient id="paint9_linear" x1="-nan" y1="-nan" x2="-nan" y2="-nan" gradientUnits="userSpaceOnUse">
<stop stop-color="#0000FF"/>
<stop offset="0.4434" stop-color="#FF0000"/>
<stop offset="0.6321" stop-color="#7449FF"/>
<stop offset="0.766" stop-color="#F049FF"/>
<stop offset="1" stop-color="#0000FF"/>
</linearGradient>
<linearGradient id="paint10_linear" x1="-nan" y1="-nan" x2="-nan" y2="-nan" gradientUnits="userSpaceOnUse">
<stop stop-color="#0000FF"/>
<stop offset="0.4434" stop-color="#FF0000"/>
<stop offset="0.6321" stop-color="#7449FF"/>
<stop offset="0.766" stop-color="#F049FF"/>
<stop offset="1" stop-color="#0000FF"/>
</linearGradient>
<linearGradient id="paint11_linear" x1="-nan" y1="-nan" x2="-nan" y2="-nan" gradientUnits="userSpaceOnUse">
<stop stop-color="#0000FF"/>
<stop offset="0.4434" stop-color="#FF0000"/>
<stop offset="0.6321" stop-color="#7449FF"/>
<stop offset="0.766" stop-color="#F049FF"/>
<stop offset="1" stop-color="#0000FF"/>
</linearGradient>
<linearGradient id="paint12_linear" x1="-nan" y1="-nan" x2="-nan" y2="-nan" gradientUnits="userSpaceOnUse">
<stop stop-color="#0000FF"/>
<stop offset="0.4434" stop-color="#FF0000"/>
<stop offset="0.6321" stop-color="#7449FF"/>
<stop offset="0.766" stop-color="#F049FF"/>
<stop offset="1" stop-color="#0000FF"/>
</linearGradient>
<linearGradient id="paint13_linear" x1="-nan" y1="-nan" x2="-nan" y2="-nan" gradientUnits="userSpaceOnUse">
<stop stop-color="#0000FF"/>
<stop offset="0.4434" stop-color="#FF0000"/>
<stop offset="0.6321" stop-color="#7449FF"/>
<stop offset="0.766" stop-color="#F049FF"/>
<stop offset="1" stop-color="#0000FF"/>
</linearGradient>
<linearGradient id="paint14_linear" x1="718.167" y1="581.276" x2="2077.36" y2="581.276" gradientUnits="userSpaceOnUse">
<stop stop-color="#0000FF"/>
<stop offset="0.4434" stop-color="#FF0000"/>
<stop offset="0.6321" stop-color="#7449FF"/>
<stop offset="0.766" stop-color="#F049FF"/>
<stop offset="1" stop-color="#0000FF"/>
</linearGradient>
<linearGradient id="paint15_linear" x1="718.167" y1="581.28" x2="2001.92" y2="581.28" gradientUnits="userSpaceOnUse">
<stop stop-color="#0000FF"/>
<stop offset="0.4434" stop-color="#FF0000"/>
<stop offset="0.6321" stop-color="#7449FF"/>
<stop offset="0.766" stop-color="#F049FF"/>
<stop offset="1" stop-color="#0000FF"/>
</linearGradient>
<linearGradient id="paint16_linear" x1="-nan" y1="-nan" x2="-nan" y2="-nan" gradientUnits="userSpaceOnUse">
<stop stop-color="#0000FF"/>
<stop offset="0.4434" stop-color="#FF0000"/>
<stop offset="0.6321" stop-color="#7449FF"/>
<stop offset="0.766" stop-color="#F049FF"/>
<stop offset="1" stop-color="#0000FF"/>
</linearGradient>
<linearGradient id="paint17_linear" x1="-nan" y1="-nan" x2="-nan" y2="-nan" gradientUnits="userSpaceOnUse">
<stop stop-color="#0000FF"/>
<stop offset="0.4434" stop-color="#FF0000"/>
<stop offset="0.6321" stop-color="#7449FF"/>
<stop offset="0.766" stop-color="#F049FF"/>
<stop offset="1" stop-color="#0000FF"/>
</linearGradient>
<linearGradient id="paint18_linear" x1="-nan" y1="-nan" x2="-nan" y2="-nan" gradientUnits="userSpaceOnUse">
<stop stop-color="#0000FF"/>
<stop offset="0.4434" stop-color="#FF0000"/>
<stop offset="0.6321" stop-color="#7449FF"/>
<stop offset="0.766" stop-color="#F049FF"/>
<stop offset="1" stop-color="#0000FF"/>
</linearGradient>
<linearGradient id="paint19_linear" x1="-nan" y1="-nan" x2="-nan" y2="-nan" gradientUnits="userSpaceOnUse">
<stop stop-color="#0000FF"/>
<stop offset="0.4434" stop-color="#FF0000"/>
<stop offset="0.6321" stop-color="#7449FF"/>
<stop offset="0.766" stop-color="#F049FF"/>
<stop offset="1" stop-color="#0000FF"/>
</linearGradient>
<linearGradient id="paint20_linear" x1="-nan" y1="-nan" x2="-nan" y2="-nan" gradientUnits="userSpaceOnUse">
<stop stop-color="#0000FF"/>
<stop offset="0.4434" stop-color="#FF0000"/>
<stop offset="0.6321" stop-color="#7449FF"/>
<stop offset="0.766" stop-color="#F049FF"/>
<stop offset="1" stop-color="#0000FF"/>
</linearGradient>
<linearGradient id="paint21_linear" x1="-nan" y1="-nan" x2="-nan" y2="-nan" gradientUnits="userSpaceOnUse">
<stop stop-color="#0000FF"/>
<stop offset="0.4434" stop-color="#FF0000"/>
<stop offset="0.6321" stop-color="#7449FF"/>
<stop offset="0.766" stop-color="#F049FF"/>
<stop offset="1" stop-color="#0000FF"/>
</linearGradient>
<linearGradient id="paint22_linear" x1="-nan" y1="-nan" x2="-nan" y2="-nan" gradientUnits="userSpaceOnUse">
<stop stop-color="#0000FF"/>
<stop offset="0.4434" stop-color="#FF0000"/>
<stop offset="0.6321" stop-color="#7449FF"/>
<stop offset="0.766" stop-color="#F049FF"/>
<stop offset="1" stop-color="#0000FF"/>
</linearGradient>
<linearGradient id="paint23_linear" x1="-nan" y1="-nan" x2="-nan" y2="-nan" gradientUnits="userSpaceOnUse">
<stop stop-color="#0000FF"/>
<stop offset="0.4434" stop-color="#FF0000"/>
<stop offset="0.6321" stop-color="#7449FF"/>
<stop offset="0.766" stop-color="#F049FF"/>
<stop offset="1" stop-color="#0000FF"/>
</linearGradient>
<linearGradient id="paint24_linear" x1="-nan" y1="-nan" x2="-nan" y2="-nan" gradientUnits="userSpaceOnUse">
<stop stop-color="#0000FF"/>
<stop offset="0.4434" stop-color="#FF0000"/>
<stop offset="0.6321" stop-color="#7449FF"/>
<stop offset="0.766" stop-color="#F049FF"/>
<stop offset="1" stop-color="#0000FF"/>
</linearGradient>
<linearGradient id="paint25_linear" x1="-nan" y1="-nan" x2="-nan" y2="-nan" gradientUnits="userSpaceOnUse">
<stop stop-color="#0000FF"/>
<stop offset="0.4434" stop-color="#FF0000"/>
<stop offset="0.6321" stop-color="#7449FF"/>
<stop offset="0.766" stop-color="#F049FF"/>
<stop offset="1" stop-color="#0000FF"/>
</linearGradient>
<linearGradient id="paint26_linear" x1="-nan" y1="-nan" x2="-nan" y2="-nan" gradientUnits="userSpaceOnUse">
<stop stop-color="#0000FF"/>
<stop offset="0.4434" stop-color="#FF0000"/>
<stop offset="0.6321" stop-color="#7449FF"/>
<stop offset="0.766" stop-color="#F049FF"/>
<stop offset="1" stop-color="#0000FF"/>
</linearGradient>
<linearGradient id="paint27_linear" x1="-nan" y1="-nan" x2="-nan" y2="-nan" gradientUnits="userSpaceOnUse">
<stop stop-color="#0000FF"/>
<stop offset="0.4434" stop-color="#FF0000"/>
<stop offset="0.6321" stop-color="#7449FF"/>
<stop offset="0.766" stop-color="#F049FF"/>
<stop offset="1" stop-color="#0000FF"/>
</linearGradient>
<linearGradient id="paint28_linear" x1="718.166" y1="70.6691" x2="2077.36" y2="70.6691" gradientUnits="userSpaceOnUse">
<stop stop-color="#0000FF"/>
<stop offset="0.4434" stop-color="#FF0000"/>
<stop offset="0.6321" stop-color="#7449FF"/>
<stop offset="0.766" stop-color="#F049FF"/>
<stop offset="1" stop-color="#0000FF"/>
</linearGradient>
<linearGradient id="paint29_linear" x1="718.158" y1="70.6692" x2="2001.91" y2="70.6692" gradientUnits="userSpaceOnUse">
<stop stop-color="#0000FF"/>
<stop offset="0.4434" stop-color="#FF0000"/>
<stop offset="0.6321" stop-color="#7449FF"/>
<stop offset="0.766" stop-color="#F049FF"/>
<stop offset="1" stop-color="#0000FF"/>
</linearGradient>
<linearGradient id="paint30_linear" x1="-nan" y1="-nan" x2="-nan" y2="-nan" gradientUnits="userSpaceOnUse">
<stop stop-color="#0000FF"/>
<stop offset="0.4434" stop-color="#FF0000"/>
<stop offset="0.6321" stop-color="#7449FF"/>
<stop offset="0.766" stop-color="#F049FF"/>
<stop offset="1" stop-color="#0000FF"/>
</linearGradient>
<linearGradient id="paint31_linear" x1="-nan" y1="-nan" x2="-nan" y2="-nan" gradientUnits="userSpaceOnUse">
<stop stop-color="#0000FF"/>
<stop offset="0.4434" stop-color="#FF0000"/>
<stop offset="0.6321" stop-color="#7449FF"/>
<stop offset="0.766" stop-color="#F049FF"/>
<stop offset="1" stop-color="#0000FF"/>
</linearGradient>
<linearGradient id="paint32_linear" x1="-nan" y1="-nan" x2="-nan" y2="-nan" gradientUnits="userSpaceOnUse">
<stop stop-color="#0000FF"/>
<stop offset="0.4434" stop-color="#FF0000"/>
<stop offset="0.6321" stop-color="#7449FF"/>
<stop offset="0.766" stop-color="#F049FF"/>
<stop offset="1" stop-color="#0000FF"/>
</linearGradient>
<linearGradient id="paint33_linear" x1="-nan" y1="-nan" x2="-nan" y2="-nan" gradientUnits="userSpaceOnUse">
<stop stop-color="#0000FF"/>
<stop offset="0.4434" stop-color="#FF0000"/>
<stop offset="0.6321" stop-color="#7449FF"/>
<stop offset="0.766" stop-color="#F049FF"/>
<stop offset="1" stop-color="#0000FF"/>
</linearGradient>
<linearGradient id="paint34_linear" x1="-nan" y1="-nan" x2="-nan" y2="-nan" gradientUnits="userSpaceOnUse">
<stop stop-color="#0000FF"/>
<stop offset="0.4434" stop-color="#FF0000"/>
<stop offset="0.6321" stop-color="#7449FF"/>
<stop offset="0.766" stop-color="#F049FF"/>
<stop offset="1" stop-color="#0000FF"/>
</linearGradient>
<linearGradient id="paint35_linear" x1="-nan" y1="-nan" x2="-nan" y2="-nan" gradientUnits="userSpaceOnUse">
<stop stop-color="#0000FF"/>
<stop offset="0.4434" stop-color="#FF0000"/>
<stop offset="0.6321" stop-color="#7449FF"/>
<stop offset="0.766" stop-color="#F049FF"/>
<stop offset="1" stop-color="#0000FF"/>
</linearGradient>
<linearGradient id="paint36_linear" x1="-nan" y1="-nan" x2="-nan" y2="-nan" gradientUnits="userSpaceOnUse">
<stop stop-color="#0000FF"/>
<stop offset="0.4434" stop-color="#FF0000"/>
<stop offset="0.6321" stop-color="#7449FF"/>
<stop offset="0.766" stop-color="#F049FF"/>
<stop offset="1" stop-color="#0000FF"/>
</linearGradient>
<linearGradient id="paint37_linear" x1="-nan" y1="-nan" x2="-nan" y2="-nan" gradientUnits="userSpaceOnUse">
<stop stop-color="#0000FF"/>
<stop offset="0.4434" stop-color="#FF0000"/>
<stop offset="0.6321" stop-color="#7449FF"/>
<stop offset="0.766" stop-color="#F049FF"/>
<stop offset="1" stop-color="#0000FF"/>
</linearGradient>
<linearGradient id="paint38_linear" x1="-nan" y1="-nan" x2="-nan" y2="-nan" gradientUnits="userSpaceOnUse">
<stop stop-color="#0000FF"/>
<stop offset="0.4434" stop-color="#FF0000"/>
<stop offset="0.6321" stop-color="#7449FF"/>
<stop offset="0.766" stop-color="#F049FF"/>
<stop offset="1" stop-color="#0000FF"/>
</linearGradient>
<linearGradient id="paint39_linear" x1="-nan" y1="-nan" x2="-nan" y2="-nan" gradientUnits="userSpaceOnUse">
<stop stop-color="#0000FF"/>
<stop offset="0.4434" stop-color="#FF0000"/>
<stop offset="0.6321" stop-color="#7449FF"/>
<stop offset="0.766" stop-color="#F049FF"/>
<stop offset="1" stop-color="#0000FF"/>
</linearGradient>
<linearGradient id="paint40_linear" x1="-nan" y1="-nan" x2="-nan" y2="-nan" gradientUnits="userSpaceOnUse">
<stop stop-color="#0000FF"/>
<stop offset="0.4434" stop-color="#FF0000"/>
<stop offset="0.6321" stop-color="#7449FF"/>
<stop offset="0.766" stop-color="#F049FF"/>
<stop offset="1" stop-color="#0000FF"/>
</linearGradient>
<linearGradient id="paint41_linear" x1="-nan" y1="-nan" x2="-nan" y2="-nan" gradientUnits="userSpaceOnUse">
<stop stop-color="#0000FF"/>
<stop offset="0.4434" stop-color="#FF0000"/>
<stop offset="0.6321" stop-color="#7449FF"/>
<stop offset="0.766" stop-color="#F049FF"/>
<stop offset="1" stop-color="#0000FF"/>
</linearGradient>
<linearGradient id="paint42_linear" x1="-639.902" y1="70.669" x2="719.293" y2="70.669" gradientUnits="userSpaceOnUse">
<stop stop-color="#0000FF"/>
<stop offset="0.4434" stop-color="#FF0000"/>
<stop offset="0.6321" stop-color="#7449FF"/>
<stop offset="0.766" stop-color="#F049FF"/>
<stop offset="1" stop-color="#0000FF"/>
</linearGradient>
<linearGradient id="paint43_linear" x1="-564.454" y1="70.6691" x2="719.3" y2="70.6691" gradientUnits="userSpaceOnUse">
<stop stop-color="#0000FF"/>
<stop offset="0.4434" stop-color="#FF0000"/>
<stop offset="0.6321" stop-color="#7449FF"/>
<stop offset="0.766" stop-color="#F049FF"/>
<stop offset="1" stop-color="#0000FF"/>
</linearGradient>
<linearGradient id="paint44_linear" x1="-nan" y1="-nan" x2="-nan" y2="-nan" gradientUnits="userSpaceOnUse">
<stop stop-color="#0000FF"/>
<stop offset="0.4434" stop-color="#FF0000"/>
<stop offset="0.6321" stop-color="#7449FF"/>
<stop offset="0.766" stop-color="#F049FF"/>
<stop offset="1" stop-color="#0000FF"/>
</linearGradient>
<linearGradient id="paint45_linear" x1="-nan" y1="-nan" x2="-nan" y2="-nan" gradientUnits="userSpaceOnUse">
<stop stop-color="#0000FF"/>
<stop offset="0.4434" stop-color="#FF0000"/>
<stop offset="0.6321" stop-color="#7449FF"/>
<stop offset="0.766" stop-color="#F049FF"/>
<stop offset="1" stop-color="#0000FF"/>
</linearGradient>
<linearGradient id="paint46_linear" x1="-nan" y1="-nan" x2="-nan" y2="-nan" gradientUnits="userSpaceOnUse">
<stop stop-color="#0000FF"/>
<stop offset="0.4434" stop-color="#FF0000"/>
<stop offset="0.6321" stop-color="#7449FF"/>
<stop offset="0.766" stop-color="#F049FF"/>
<stop offset="1" stop-color="#0000FF"/>
</linearGradient>
<linearGradient id="paint47_linear" x1="-nan" y1="-nan" x2="-nan" y2="-nan" gradientUnits="userSpaceOnUse">
<stop stop-color="#0000FF"/>
<stop offset="0.4434" stop-color="#FF0000"/>
<stop offset="0.6321" stop-color="#7449FF"/>
<stop offset="0.766" stop-color="#F049FF"/>
<stop offset="1" stop-color="#0000FF"/>
</linearGradient>
<linearGradient id="paint48_linear" x1="-nan" y1="-nan" x2="-nan" y2="-nan" gradientUnits="userSpaceOnUse">
<stop stop-color="#0000FF"/>
<stop offset="0.4434" stop-color="#FF0000"/>
<stop offset="0.6321" stop-color="#7449FF"/>
<stop offset="0.766" stop-color="#F049FF"/>
<stop offset="1" stop-color="#0000FF"/>
</linearGradient>
<linearGradient id="paint49_linear" x1="-nan" y1="-nan" x2="-nan" y2="-nan" gradientUnits="userSpaceOnUse">
<stop stop-color="#0000FF"/>
<stop offset="0.4434" stop-color="#FF0000"/>
<stop offset="0.6321" stop-color="#7449FF"/>
<stop offset="0.766" stop-color="#F049FF"/>
<stop offset="1" stop-color="#0000FF"/>
</linearGradient>
<linearGradient id="paint50_linear" x1="-nan" y1="-nan" x2="-nan" y2="-nan" gradientUnits="userSpaceOnUse">
<stop stop-color="#0000FF"/>
<stop offset="0.4434" stop-color="#FF0000"/>
<stop offset="0.6321" stop-color="#7449FF"/>
<stop offset="0.766" stop-color="#F049FF"/>
<stop offset="1" stop-color="#0000FF"/>
</linearGradient>
<linearGradient id="paint51_linear" x1="-nan" y1="-nan" x2="-nan" y2="-nan" gradientUnits="userSpaceOnUse">
<stop stop-color="#0000FF"/>
<stop offset="0.4434" stop-color="#FF0000"/>
<stop offset="0.6321" stop-color="#7449FF"/>
<stop offset="0.766" stop-color="#F049FF"/>
<stop offset="1" stop-color="#0000FF"/>
</linearGradient>
<linearGradient id="paint52_linear" x1="-nan" y1="-nan" x2="-nan" y2="-nan" gradientUnits="userSpaceOnUse">
<stop stop-color="#0000FF"/>
<stop offset="0.4434" stop-color="#FF0000"/>
<stop offset="0.6321" stop-color="#7449FF"/>
<stop offset="0.766" stop-color="#F049FF"/>
<stop offset="1" stop-color="#0000FF"/>
</linearGradient>
<linearGradient id="paint53_linear" x1="-nan" y1="-nan" x2="-nan" y2="-nan" gradientUnits="userSpaceOnUse">
<stop stop-color="#0000FF"/>
<stop offset="0.4434" stop-color="#FF0000"/>
<stop offset="0.6321" stop-color="#7449FF"/>
<stop offset="0.766" stop-color="#F049FF"/>
<stop offset="1" stop-color="#0000FF"/>
</linearGradient>
<linearGradient id="paint54_linear" x1="-nan" y1="-nan" x2="-nan" y2="-nan" gradientUnits="userSpaceOnUse">
<stop stop-color="#0000FF"/>
<stop offset="0.4434" stop-color="#FF0000"/>
<stop offset="0.6321" stop-color="#7449FF"/>
<stop offset="0.766" stop-color="#F049FF"/>
<stop offset="1" stop-color="#0000FF"/>
</linearGradient>
<linearGradient id="paint55_linear" x1="-nan" y1="-nan" x2="-nan" y2="-nan" gradientUnits="userSpaceOnUse">
<stop stop-color="#0000FF"/>
<stop offset="0.4434" stop-color="#FF0000"/>
<stop offset="0.6321" stop-color="#7449FF"/>
<stop offset="0.766" stop-color="#F049FF"/>
<stop offset="1" stop-color="#0000FF"/>
</linearGradient>
</defs>
</svg>
