<svg width="24" height="24" viewBox="0 0 24 24" fill="none" xmlns="http://www.w3.org/2000/svg">
<path d="M12.1031 13.5998C14.257 13.5998 16.0031 11.8537 16.0031 9.6998C16.0031 7.54589 14.257 5.7998 12.1031 5.7998C9.94921 5.7998 8.20312 7.54589 8.20312 9.6998C8.20312 11.8537 9.94921 13.5998 12.1031 13.5998Z" stroke="white" stroke-miterlimit="10"/>
<path d="M17.5031 21.8004C17.5031 18.8004 15.1031 16.4004 12.1031 16.4004C9.10312 16.4004 6.70312 18.8004 6.70312 21.8004" stroke="white" stroke-miterlimit="10"/>
<path d="M12.1 23.2C18.2304 23.2 23.2 18.2304 23.2 12.1C23.2 5.96964 18.2304 1 12.1 1C5.96964 1 1 5.96964 1 12.1C1 18.2304 5.96964 23.2 12.1 23.2Z" stroke="white" stroke-miterlimit="10"/>
</svg>
